<svg width="4462" height="4462" viewBox="0 0 4462 4462" fill="none" xmlns="http://www.w3.org/2000/svg">
<circle cx="2231" cy="2231" r="2231" fill="black"/>
<path d="M2974.67 1027C3113.79 1027 3230.6 1075.46 3330.07 1174.93C3429.54 1274.4 3478 1391.21 3478 1530.33C3478 1554.03 3476.36 1587.82 3472.72 1632.66C3469.14 1676.76 3463.74 1727.93 3456.45 1786.29L3251.87 3285.29L3251.84 3285.51L3251.82 3285.73C3242.45 3356.9 3211.39 3412.48 3156.6 3457.06C3099.82 3503.25 3036.6 3525.72 2963.5 3525.72C2920.31 3525.72 2882.08 3516.46 2847.35 3498.65C2812.36 3480.71 2783.36 3455.9 2759.6 3423.26L2364.77 2847.61C2347.87 2818.33 2321.57 2798.25 2291.22 2788.14C2270.84 2781.34 2249.88 2778.04 2228.82 2777.84L2226.78 2777.83C2195.58 2777.83 2169.51 2792.31 2159.35 2798.02C2144.43 2806.41 2128.41 2817.45 2112.05 2829.72L2100.01 2838.75L2091.48 2851.14L1704.79 3412.58C1678.15 3450.57 1646.61 3478 1609.97 3496.77C1572.08 3516.18 1532.5 3525.72 1490.05 3525.72C1417.51 3525.72 1355.45 3503.01 1300.13 3456.28C1245.88 3410.45 1214.91 3353.8 1205.46 3282.01L1205.43 3281.76L1004.57 1786.44C997.267 1728.01 991.859 1676.8 988.28 1632.66C984.644 1587.82 983 1554.03 983 1530.33C983 1391.21 1031.46 1274.4 1130.93 1174.93C1230.4 1075.46 1347.21 1027 1486.33 1027C1568.96 1027 1626.02 1038.12 1663.1 1054.5C1714.07 1077.02 1763.15 1101.27 1810.36 1127.24C1862.93 1156.15 1918.51 1182.94 1977.05 1207.66C2048.22 1237.71 2134.22 1250.25 2230.5 1250.25C2326.78 1250.25 2412.78 1237.71 2483.95 1207.66C2542.49 1182.94 2598.07 1156.15 2650.64 1127.24C2697.57 1101.43 2747.03 1077.27 2799.05 1054.81C2838.08 1037.96 2895.1 1027 2974.67 1027Z" fill="white" stroke="url(#paint0_linear_351_26)" stroke-width="184"/>
<defs>
<linearGradient id="paint0_linear_351_26" x1="2230.5" y1="935" x2="2230.5" y2="3617.72" gradientUnits="userSpaceOnUse">
<stop stop-color="#ECB044"/>
<stop offset="1" stop-color="#332B1E"/>
</linearGradient>
</defs>
</svg>
