<svg width="4462" height="4462" viewBox="0 0 4462 4462" fill="none" xmlns="http://www.w3.org/2000/svg">
<circle cx="2231" cy="2231" r="2231" fill="black"/>
<path d="M2974.67 1027C3113.79 1027 3230.6 1075.46 3330.07 1174.93C3429.54 1274.4 3478 1391.21 3478 1530.33C3478 1554.03 3476.36 1587.82 3472.72 1632.66C3469.14 1676.78 3463.74 1727.97 3456.44 1786.37L3251.87 3285.29L3251.84 3285.51L3251.82 3285.73C3242.45 3356.9 3211.39 3412.48 3156.6 3457.06C3099.82 3503.25 3036.6 3525.72 2963.5 3525.72C2920.31 3525.72 2882.08 3516.46 2847.35 3498.65C2812.36 3480.71 2783.35 3455.9 2759.6 3423.26L2364.77 2847.61C2347.87 2818.32 2321.57 2798.25 2291.22 2788.14C2270.84 2781.34 2249.88 2778.04 2228.82 2777.84L2226.78 2777.83C2195.58 2777.83 2169.51 2792.31 2159.35 2798.02C2144.43 2806.41 2128.41 2817.45 2112.05 2829.72L2100.01 2838.75L2091.48 2851.14L1704.79 3412.58C1678.15 3450.57 1646.61 3478 1609.97 3496.77C1572.08 3516.18 1532.5 3525.72 1490.05 3525.72C1417.51 3525.72 1355.45 3503.01 1300.13 3456.28C1245.88 3410.45 1214.91 3353.8 1205.46 3282.01L1205.43 3281.76L1004.57 1786.44C997.267 1728.01 991.859 1676.8 988.28 1632.66C984.644 1587.82 983 1554.03 983 1530.33C983 1391.21 1031.46 1274.4 1130.93 1174.93C1230.4 1075.46 1347.21 1027 1486.33 1027C1568.96 1027 1626.02 1038.12 1663.1 1054.5C1714.07 1077.02 1763.15 1101.27 1810.36 1127.24C1862.93 1156.15 1918.51 1182.94 1977.05 1207.66C2048.22 1237.71 2134.22 1250.25 2230.5 1250.25C2326.78 1250.25 2412.78 1237.71 2483.95 1207.66C2542.49 1182.94 2598.07 1156.15 2650.64 1127.24C2697.57 1101.43 2747.03 1077.27 2799.05 1054.81C2838.08 1037.96 2895.1 1027 2974.67 1027Z" fill="white" stroke="url(#paint0_linear_351_26)" stroke-width="184"/>
<path d="M1452.2 2352.35C1439.9 2352.35 1428.2 2350.55 1417.1 2346.95C1406 2343.35 1396.85 2337.95 1389.65 2330.75C1382.75 2323.55 1379.3 2314.55 1379.3 2303.75C1379.3 2292.65 1384.1 2282.6 1393.7 2273.6C1403.6 2264.6 1417.55 2260.1 1435.55 2260.1C1454.45 2260.1 1472.3 2264.45 1489.1 2273.15C1506.2 2281.55 1524.2 2290.7 1543.1 2300.6C1559 2285.3 1573.1 2267.6 1585.4 2247.5C1598 2227.1 1610 2205.65 1621.4 2183.15C1633.1 2160.65 1645.1 2138.3 1657.4 2116.1C1669.7 2093.6 1683.5 2072.75 1698.8 2053.55C1701.5 2050.25 1704.2 2046.95 1706.9 2043.65C1709.6 2040.05 1712.45 2036.6 1715.45 2033.3C1699.25 2023.7 1681.85 2016.35 1663.25 2011.25C1644.65 2005.85 1625.45 2003.15 1605.65 2003.15C1581.05 2003.15 1558.25 2006.3 1537.25 2012.6C1516.25 2018.9 1497.95 2027.45 1482.35 2038.25C1467.05 2048.75 1455.05 2060.75 1446.35 2074.25C1437.65 2087.45 1433.3 2101.1 1433.3 2115.2C1433.3 2127.8 1435.85 2138.3 1440.95 2146.7C1446.35 2154.8 1453.1 2160.8 1461.2 2164.7C1469.3 2168.6 1477.25 2170.55 1485.05 2170.55C1495.55 2170.55 1504.55 2168.6 1512.05 2164.7C1519.55 2160.5 1525.7 2155.4 1530.5 2149.4C1535.3 2143.4 1538.9 2137.55 1541.3 2131.85C1543.7 2126.15 1545.05 2121.5 1545.35 2117.9C1545.35 2115.8 1546.7 2114.75 1549.4 2114.75C1553.6 2114.75 1555.25 2117.3 1554.35 2122.4C1552.85 2134.4 1548.35 2144.9 1540.85 2153.9C1533.35 2162.6 1524.35 2169.5 1513.85 2174.6C1503.35 2179.4 1492.55 2181.8 1481.45 2181.8C1468.25 2181.8 1456.25 2179.4 1445.45 2174.6C1434.65 2169.5 1425.95 2162 1419.35 2152.1C1413.05 2141.9 1409.9 2129.45 1409.9 2114.75C1409.9 2095.25 1415.15 2077.85 1425.65 2062.55C1436.15 2046.95 1450.55 2033.75 1468.85 2022.95C1487.15 2012.15 1508.15 2003.9 1531.85 1998.2C1555.55 1992.5 1580.6 1989.65 1607 1989.65C1627.4 1989.65 1647.95 1992.2 1668.65 1997.3C1689.35 2002.1 1709 2009.45 1727.6 2019.35C1735.4 2010.65 1743.35 2003 1751.45 1996.4C1759.85 1989.5 1768.4 1984.25 1777.1 1980.65C1781 1979.15 1784.15 1978.4 1786.55 1978.4C1788.35 1978.4 1789.25 1978.85 1789.25 1979.75C1789.25 1981.25 1785.8 1985 1778.9 1991C1775 1994.6 1770.35 2000.15 1764.95 2007.65C1759.55 2014.85 1754 2022.8 1748.3 2031.5C1766.3 2043.2 1782.2 2057.45 1796 2074.25C1810.1 2090.75 1821.2 2109.65 1829.3 2130.95C1837.4 2151.95 1841.45 2175.35 1841.45 2201.15C1841.45 2226.35 1837.1 2248.4 1828.4 2267.3C1819.7 2285.9 1807.85 2301.35 1792.85 2313.65C1777.85 2325.95 1760.6 2335.1 1741.1 2341.1C1721.6 2347.4 1701.05 2350.55 1679.45 2350.55C1653.95 2350.55 1630.25 2347.1 1608.35 2340.2C1586.75 2333.3 1566.65 2325.5 1548.05 2316.8C1533.35 2328.5 1518.05 2337.35 1502.15 2343.35C1486.55 2349.35 1469.9 2352.35 1452.2 2352.35ZM1717.7 2079.65C1711.4 2089.55 1703.75 2102.15 1694.75 2117.45C1685.75 2132.45 1675.7 2148.8 1664.6 2166.5C1653.5 2184.2 1641.95 2201.9 1629.95 2219.6C1617.95 2237.3 1605.8 2253.95 1593.5 2269.55C1581.5 2284.85 1569.8 2297.75 1558.4 2308.25C1574.3 2316.05 1591.85 2322.8 1611.05 2328.5C1630.25 2334.2 1652 2337.05 1676.3 2337.05C1703.9 2337.05 1727.9 2331.35 1748.3 2319.95C1768.7 2308.25 1784.6 2292.5 1796 2272.7C1807.4 2252.6 1813.1 2229.95 1813.1 2204.75C1813.1 2172.05 1806.2 2142.35 1792.4 2115.65C1778.6 2088.65 1760.15 2066.15 1737.05 2048.15C1733.15 2054.45 1729.55 2060.45 1726.25 2066.15C1722.95 2071.55 1720.1 2076.05 1717.7 2079.65ZM1452.2 2338.4C1467.5 2339.3 1482.35 2336.6 1496.75 2330.3C1511.45 2323.7 1523.6 2316.65 1533.2 2309.15C1515.2 2300.45 1498.55 2292.5 1483.25 2285.3C1468.25 2278.1 1454.3 2274.5 1441.4 2274.5C1430.9 2274.5 1422.8 2277.65 1417.1 2283.95C1411.4 2289.95 1408.55 2296.7 1408.55 2304.2C1408.55 2313.8 1412.3 2321.75 1419.8 2328.05C1427.6 2334.35 1438.4 2337.8 1452.2 2338.4ZM1863.41 2244.8C1865.81 2239.7 1868.96 2231.6 1872.86 2220.5C1876.76 2209.1 1880.81 2196.5 1885.01 2182.7C1889.21 2168.9 1892.36 2155.85 1894.46 2143.55C1895.36 2138.75 1897.01 2135.3 1899.41 2133.2C1901.81 2130.8 1904.36 2129.6 1907.06 2129.6C1910.96 2129.6 1914.56 2131.55 1917.86 2135.45C1921.16 2139.05 1922.81 2144.3 1922.81 2151.2C1922.81 2159.6 1920.26 2166.8 1915.16 2172.8C1910.36 2178.8 1904.36 2184.5 1897.16 2189.9C1900.16 2190.2 1903.31 2190.5 1906.61 2190.8C1909.91 2190.8 1913.51 2190.8 1917.41 2190.8C1931.51 2190.8 1945.46 2189.9 1959.26 2188.1C1959.86 2189.9 1960.16 2191.25 1960.16 2192.15C1960.16 2196.05 1958.96 2201 1956.56 2207C1954.46 2213 1952.21 2218.4 1949.81 2223.2C1948.61 2225.9 1946.21 2230.85 1942.61 2238.05C1939.01 2244.95 1935.11 2252.9 1930.91 2261.9C1926.71 2270.6 1923.11 2279.3 1920.11 2288C1917.41 2296.4 1916.06 2303.6 1916.06 2309.6C1916.06 2317.4 1919.06 2321.3 1925.06 2321.3C1930.76 2321.3 1938.71 2314.7 1948.91 2301.5C1959.11 2288 1969.31 2269.55 1979.51 2246.15C1983.11 2246.15 1984.91 2247.5 1984.91 2250.2C1981.61 2258.3 1977.41 2267.15 1972.31 2276.75C1967.51 2286.35 1962.11 2295.5 1956.11 2304.2C1950.11 2312.6 1943.66 2319.65 1936.76 2325.35C1929.86 2330.75 1922.66 2333.45 1915.16 2333.45C1909.46 2333.45 1903.76 2331.2 1898.06 2326.7C1892.36 2321.9 1889.51 2314.25 1889.51 2303.75C1889.51 2294.45 1891.31 2285.45 1894.91 2276.75C1898.51 2267.75 1902.56 2259.35 1907.06 2251.55C1911.56 2243.75 1915.61 2236.85 1919.21 2230.85C1922.81 2224.85 1924.61 2220.05 1924.61 2216.45C1924.61 2211.05 1921.16 2207.15 1914.26 2204.75C1907.66 2202.35 1898.96 2201 1888.16 2200.7C1882.76 2214.5 1878.71 2224.7 1876.01 2231.3C1873.31 2237.9 1870.76 2244.2 1868.36 2250.2C1863.56 2250.2 1861.91 2248.4 1863.41 2244.8ZM2000.57 2339.75C1995.77 2339.75 1991.87 2338.25 1988.87 2335.25C1985.87 2332.25 1984.37 2328.5 1984.37 2324C1984.37 2318 1986.62 2312.9 1991.12 2308.7C1995.92 2304.5 2001.02 2302.4 2006.42 2302.4C2011.22 2302.4 2015.12 2303.9 2018.12 2306.9C2021.12 2309.6 2022.62 2313.2 2022.62 2317.7C2022.62 2323.4 2020.37 2328.5 2015.87 2333C2011.37 2337.5 2006.27 2339.75 2000.57 2339.75ZM2458.21 2036.45C2458.21 2047.85 2455.96 2061.95 2451.46 2078.75C2447.26 2095.25 2441.56 2113.4 2434.36 2133.2C2427.46 2152.7 2420.11 2172.65 2412.31 2193.05C2404.51 2213.45 2397.01 2233.25 2389.81 2252.45C2382.91 2271.35 2377.21 2288.6 2372.71 2304.2C2368.51 2319.5 2366.41 2331.8 2366.41 2341.1C2366.41 2355.2 2371.06 2362.25 2380.36 2362.25C2389.36 2362.25 2400.31 2358.05 2413.21 2349.65C2426.11 2341.55 2439.76 2330.6 2454.16 2316.8C2468.86 2302.7 2483.26 2286.8 2497.36 2269.1C2511.46 2251.1 2524.21 2232.5 2535.61 2213.3C2547.31 2194.1 2556.61 2175.2 2563.51 2156.6C2570.41 2137.7 2573.86 2120.45 2573.86 2104.85C2573.86 2094.35 2572.36 2084.9 2569.36 2076.5C2566.66 2068.1 2560.81 2063.9 2551.81 2063.9C2547.91 2063.9 2544.76 2063.15 2542.36 2061.65C2540.26 2059.85 2539.21 2058.2 2539.21 2056.7C2539.21 2053.7 2541.76 2052.2 2546.86 2052.2C2550.46 2052.2 2554.96 2053.55 2560.36 2056.25C2566.06 2058.65 2571.61 2062.55 2577.01 2067.95C2582.71 2073.05 2587.51 2079.65 2591.41 2087.75C2595.31 2095.85 2597.26 2105.45 2597.26 2116.55C2597.26 2130.35 2593.51 2146.4 2586.01 2164.7C2578.81 2182.7 2568.91 2201.45 2556.31 2220.95C2544.01 2240.15 2529.91 2259.05 2514.01 2277.65C2498.41 2295.95 2482.06 2312.6 2464.96 2327.6C2447.86 2342.3 2431.06 2354 2414.56 2362.7C2398.36 2371.7 2383.36 2376.2 2369.56 2376.2C2357.86 2376.2 2350.06 2372.6 2346.16 2365.4C2342.26 2358.2 2340.31 2348.75 2340.31 2337.05C2340.31 2318.75 2343.31 2298.8 2349.31 2277.2C2355.61 2255.6 2363.26 2233.25 2372.26 2210.15C2381.56 2186.75 2390.71 2163.5 2399.71 2140.4C2409.01 2117.3 2416.66 2095.1 2422.66 2073.8C2428.96 2052.5 2432.11 2032.85 2432.11 2014.85C2432.11 1994.45 2426.26 1980.65 2414.56 1973.45C2403.16 1966.25 2388.16 1962.65 2369.56 1962.65C2351.26 1962.65 2331.76 1966.1 2311.06 1973C2290.66 1979.9 2270.56 1989.65 2250.76 2002.25C2231.26 2014.85 2213.56 2030 2197.66 2047.7C2181.76 2065.1 2169.01 2084.6 2159.41 2106.2C2150.11 2127.5 2145.46 2150.45 2145.46 2175.05C2145.46 2189.45 2147.86 2202.95 2152.66 2215.55C2157.76 2227.85 2165.86 2237.9 2176.96 2245.7C2188.06 2253.2 2202.61 2256.95 2220.61 2256.95C2234.11 2256.95 2247.01 2254.1 2259.31 2248.4C2271.91 2242.7 2283.01 2235.05 2292.61 2225.45C2302.21 2215.55 2309.86 2204.6 2315.56 2192.6C2321.26 2180.6 2324.11 2168.3 2324.11 2155.7C2324.11 2145.5 2322.01 2136.65 2317.81 2129.15C2313.61 2121.35 2306.56 2117.45 2296.66 2117.45C2292.76 2117.45 2288.71 2118.05 2284.51 2119.25C2280.31 2120.45 2277.46 2121.05 2275.96 2121.05C2274.46 2121.05 2273.71 2120.15 2273.71 2118.35C2273.71 2117.75 2274.01 2117 2274.61 2116.1C2275.21 2115.2 2276.26 2114.3 2277.76 2113.4C2281.06 2111.6 2285.11 2110.25 2289.91 2109.35C2294.71 2108.15 2298.91 2107.55 2302.51 2107.55C2315.71 2107.55 2325.91 2112.2 2333.11 2121.5C2340.31 2130.8 2343.91 2142.05 2343.91 2155.25C2343.91 2169.65 2340.16 2183.6 2332.66 2197.1C2325.16 2210.6 2315.11 2222.75 2302.51 2233.55C2290.21 2244.35 2276.26 2252.9 2260.66 2259.2C2245.36 2265.5 2229.61 2268.65 2213.41 2268.65C2193.31 2268.65 2176.21 2263.7 2162.11 2253.8C2148.31 2243.9 2137.81 2231 2130.61 2215.1C2123.71 2198.9 2120.26 2181.65 2120.26 2163.35C2120.26 2139.65 2124.91 2117.15 2134.21 2095.85C2143.81 2074.25 2156.86 2054.75 2173.36 2037.35C2189.86 2019.65 2208.61 2004.35 2229.61 1991.45C2250.61 1978.55 2272.66 1968.65 2295.76 1961.75C2319.16 1954.55 2342.41 1950.95 2365.51 1950.95C2382.91 1950.95 2398.51 1953.8 2412.31 1959.5C2426.41 1965.2 2437.51 1974.35 2445.61 1986.95C2454.01 1999.25 2458.21 2015.75 2458.21 2036.45ZM2613.84 2333C2602.74 2333 2594.94 2329.85 2590.44 2323.55C2585.94 2316.95 2583.69 2309.45 2583.69 2301.05C2583.69 2296.55 2584.14 2292.05 2585.04 2287.55C2586.24 2282.75 2587.59 2278.4 2589.09 2274.5L2619.24 2197.55C2620.14 2195.15 2620.59 2193.05 2620.59 2191.25C2620.59 2188.25 2619.84 2185.7 2618.34 2183.6C2616.84 2181.2 2615.79 2179.55 2615.19 2178.65L2639.94 2177.75C2644.44 2177.45 2647.59 2178.05 2649.39 2179.55C2651.49 2180.75 2652.54 2182.25 2652.54 2184.05C2652.54 2185.85 2651.49 2189.15 2649.39 2193.95C2646.39 2201.15 2642.34 2210.15 2637.24 2220.95C2632.14 2231.75 2627.04 2242.85 2621.94 2254.25C2617.14 2265.65 2612.94 2276.3 2609.34 2286.2C2606.04 2296.1 2604.39 2303.75 2604.39 2309.15C2604.39 2313.05 2605.29 2316.35 2607.09 2319.05C2609.19 2321.75 2612.64 2323.1 2617.44 2323.1C2623.74 2323.1 2629.89 2320.7 2635.89 2315.9C2642.19 2310.8 2648.04 2304.35 2653.44 2296.55C2658.84 2288.75 2663.79 2280.35 2668.29 2271.35C2673.09 2262.35 2677.14 2253.95 2680.44 2246.15C2684.04 2246.15 2685.84 2247.5 2685.84 2250.2C2682.84 2257.7 2678.94 2266.25 2674.14 2275.85C2669.34 2285.45 2663.79 2294.6 2657.49 2303.3C2651.49 2311.7 2644.74 2318.75 2637.24 2324.45C2630.04 2330.15 2622.24 2333 2613.84 2333ZM2653.89 2149.85C2649.99 2149.85 2646.54 2148.35 2643.54 2145.35C2640.84 2142.35 2639.49 2138.75 2639.49 2134.55C2639.49 2129.45 2641.59 2124.95 2645.79 2121.05C2649.99 2116.85 2654.64 2114.75 2659.74 2114.75C2663.94 2114.75 2667.54 2116.1 2670.54 2118.8C2673.54 2121.5 2675.04 2124.95 2675.04 2129.15C2675.04 2134.55 2672.94 2139.35 2668.74 2143.55C2664.54 2147.75 2659.59 2149.85 2653.89 2149.85ZM2758.64 2336.15C2750.24 2335.25 2743.34 2332.1 2737.94 2326.7C2732.54 2321 2728.64 2314.4 2726.24 2306.9C2723.84 2299.4 2722.64 2292.5 2722.64 2286.2C2722.64 2274.2 2725.34 2264.6 2730.74 2257.4C2736.14 2249.9 2741.09 2246 2745.59 2245.7C2750.39 2246 2756.24 2244.95 2763.14 2242.55C2770.04 2239.85 2776.04 2236.25 2781.14 2231.75C2789.84 2224.85 2794.19 2217.8 2794.19 2210.6C2794.19 2203.1 2789.84 2199.35 2781.14 2199.35C2776.34 2199.35 2770.19 2201 2762.69 2204.3C2755.49 2207.6 2747.09 2213.3 2737.49 2221.4C2725.49 2231.6 2713.04 2245.25 2700.14 2262.35C2698.34 2266.25 2696.24 2272.1 2693.84 2279.9C2691.44 2287.4 2689.34 2295.2 2687.54 2303.3C2686.04 2311.4 2685.29 2318.3 2685.29 2324C2685.29 2328.5 2686.04 2331.5 2687.54 2333H2659.19C2655.89 2333 2654.24 2331.65 2654.24 2328.95C2654.24 2328.05 2654.39 2327.3 2654.69 2326.7C2654.99 2326.1 2655.29 2324.9 2655.59 2323.1C2659.79 2307.5 2664.74 2293.7 2670.44 2281.7C2676.44 2269.7 2681.39 2259.2 2685.29 2250.2C2682.59 2251.1 2681.09 2250.95 2680.79 2249.75C2680.49 2248.25 2680.34 2247.05 2680.34 2246.15C2682.44 2241.35 2685.89 2233.7 2690.69 2223.2C2695.79 2212.4 2701.64 2200.1 2708.24 2186.3C2715.14 2172.2 2722.49 2157.5 2730.29 2142.2C2738.09 2126.9 2745.89 2112.2 2753.69 2098.1C2761.49 2083.7 2767.79 2073.5 2772.59 2067.5C2777.69 2061.5 2783.84 2058.5 2791.04 2058.5C2793.74 2058.5 2796.89 2058.95 2800.49 2059.85C2804.39 2060.75 2807.84 2060.9 2810.84 2060.3C2804.24 2066 2795.99 2076.5 2786.09 2091.8C2776.19 2106.8 2765.69 2124.35 2754.59 2144.45C2743.49 2164.55 2732.84 2185.1 2722.64 2206.1C2719.64 2212.1 2716.79 2218.4 2714.09 2225C2711.39 2231.6 2708.84 2238.2 2706.44 2244.8C2712.74 2237 2719.94 2228.9 2728.04 2220.5C2736.14 2212.1 2744.54 2204.45 2753.24 2197.55C2762.24 2190.35 2771.09 2185.1 2779.79 2181.8C2789.69 2178.2 2797.94 2176.4 2804.54 2176.4C2811.44 2176.4 2816.39 2178.05 2819.39 2181.35C2822.69 2184.65 2824.34 2188.85 2824.34 2193.95C2824.34 2199.65 2822.09 2206.55 2817.59 2214.65C2813.09 2222.45 2806.94 2229.2 2799.14 2234.9C2792.54 2239.4 2785.64 2243.3 2778.44 2246.6C2771.24 2249.9 2762.69 2252 2752.79 2252.9C2750.99 2257.1 2749.64 2261.45 2748.74 2265.95C2748.14 2270.15 2747.84 2274.35 2747.84 2278.55C2747.84 2290.25 2750.54 2300.6 2755.94 2309.6C2761.34 2318.3 2768.39 2322.65 2777.09 2322.65C2781.29 2322.65 2785.79 2321.45 2790.59 2319.05C2795.69 2316.65 2800.94 2312.6 2806.34 2306.9C2812.34 2300.9 2818.34 2292.65 2824.34 2282.15C2830.34 2271.35 2836.34 2259.35 2842.34 2246.15C2845.94 2246.15 2847.74 2247.5 2847.74 2250.2C2836.94 2276.3 2826.44 2295.65 2816.24 2308.25C2806.04 2320.85 2796.14 2328.95 2786.54 2332.55C2777.24 2335.85 2767.94 2337.05 2758.64 2336.15ZM2940.15 2334.35C2933.25 2334.35 2927.1 2332.4 2921.7 2328.5C2916.6 2324.6 2914.05 2316.65 2914.05 2304.65C2914.05 2299.55 2914.35 2294.75 2914.95 2290.25C2915.85 2285.75 2916.9 2280.95 2918.1 2275.85C2915.4 2280.35 2911.65 2285.9 2906.85 2292.5C2902.05 2299.1 2896.65 2305.55 2890.65 2311.85C2884.95 2318.15 2878.95 2323.4 2872.65 2327.6C2866.65 2331.8 2860.95 2333.9 2855.55 2333.9C2847.75 2333.9 2841.45 2330.45 2836.65 2323.55C2831.85 2316.35 2829.45 2307.05 2829.45 2295.65C2829.45 2283.35 2832.3 2270.15 2838 2256.05C2843.7 2241.95 2851.5 2228.45 2861.4 2215.55C2871.3 2202.65 2882.7 2192.15 2895.6 2184.05C2908.5 2175.95 2922 2171.9 2936.1 2171.9C2943 2171.9 2949.6 2173.1 2955.9 2175.5C2962.2 2177.6 2967.75 2181.2 2972.55 2186.3C2974.65 2188.4 2975.7 2190.8 2975.7 2193.5C2975.7 2195.3 2974.95 2196.8 2973.45 2198C2971.95 2199.2 2970 2199.5 2967.6 2198.9C2964.3 2188.4 2957.25 2183.15 2946.45 2183.15C2941.35 2183.15 2935.5 2184.8 2928.9 2188.1C2920.8 2192.3 2912.1 2199.05 2902.8 2208.35C2893.8 2217.35 2885.25 2227.7 2877.15 2239.4C2869.35 2250.8 2862.9 2262.35 2857.8 2274.05C2852.7 2285.75 2850.15 2296.4 2850.15 2306C2850.15 2315.9 2853.9 2320.85 2861.4 2320.85C2868 2320.85 2874.75 2317.7 2881.65 2311.4C2888.85 2305.1 2895.6 2297.3 2901.9 2288C2908.5 2278.4 2914.5 2268.95 2919.9 2259.65C2925.3 2250.35 2929.5 2242.85 2932.5 2237.15C2937 2229.05 2941.2 2222.3 2945.1 2216.9C2949 2211.5 2954.55 2208.8 2961.75 2208.8C2965.05 2208.8 2968.35 2209.25 2971.65 2210.15C2974.95 2211.05 2978.4 2211.2 2982 2210.6C2973 2219.6 2965.05 2230.25 2958.15 2242.55C2951.55 2254.85 2946.45 2267 2942.85 2279C2939.25 2290.7 2937.45 2300.6 2937.45 2308.7C2937.45 2317.7 2940.45 2322.2 2946.45 2322.2C2951.25 2322.2 2956.35 2319.5 2961.75 2314.1C2967.45 2308.7 2972.85 2301.95 2977.95 2293.85C2983.35 2285.45 2988.3 2277.05 2992.8 2268.65C2997.3 2259.95 3000.9 2252.45 3003.6 2246.15C3005.1 2246.15 3006.3 2246.3 3007.2 2246.6C3008.4 2246.9 3009 2248.1 3009 2250.2C3008.7 2251.4 3008.1 2252.75 3007.2 2254.25C3006.6 2255.45 3005.55 2257.7 3004.05 2261C3001.65 2265.8 2998.35 2272.25 2994.15 2280.35C2989.95 2288.45 2985 2296.7 2979.3 2305.1C2973.6 2313.2 2967.45 2320.1 2960.85 2325.8C2954.25 2331.5 2947.35 2334.35 2940.15 2334.35ZM3013.23 2334.8C3000.93 2334.8 2990.88 2331.05 2983.08 2323.55C2975.58 2315.75 2971.83 2307.65 2971.83 2299.25C2971.83 2292.35 2973.63 2286.05 2977.23 2280.35C2980.53 2274.35 2985.03 2271.35 2990.73 2271.35L2991.18 2270.45C2997.78 2258.45 3004.08 2246.3 3010.08 2234C3016.38 2221.4 3023.28 2208.05 3030.78 2193.95C3037.08 2182.25 3043.83 2172.65 3051.03 2165.15C3058.53 2157.65 3067.23 2153.9 3077.13 2153.9C3079.53 2153.9 3082.83 2154.5 3087.03 2155.7C3091.23 2156.6 3093.33 2158.7 3093.33 2162C3093.33 2164.4 3091.98 2165.6 3089.28 2165.6C3087.18 2165.6 3084.78 2165 3082.08 2163.8C3079.68 2162.6 3077.73 2162 3076.23 2162C3070.53 2162 3065.73 2165.3 3061.83 2171.9C3057.93 2178.5 3055.98 2185.55 3055.98 2193.05C3055.98 2201.15 3057.33 2208.5 3060.03 2215.1C3062.73 2221.4 3065.88 2227.55 3069.48 2233.55C3073.08 2239.55 3076.23 2245.7 3078.93 2252C3081.63 2258 3082.98 2264.6 3082.98 2271.8C3082.98 2286.2 3080.13 2297.9 3074.43 2306.9C3069.03 2315.6 3061.83 2322.2 3052.83 2326.7H3053.28C3069.18 2326.7 3082.23 2319.35 3092.43 2304.65C3102.93 2289.65 3113.28 2270.15 3123.48 2246.15C3127.08 2246.15 3128.88 2247.5 3128.88 2250.2C3123.18 2263.7 3116.88 2276.9 3109.98 2289.8C3103.08 2302.7 3094.98 2313.35 3085.68 2321.75C3076.38 2330.15 3064.98 2334.35 3051.48 2334.35C3045.78 2334.35 3040.53 2333.75 3035.73 2332.55C3028.83 2334.05 3021.33 2334.8 3013.23 2334.8ZM3006.48 2287.1C3006.48 2294.3 3008.13 2301.2 3011.43 2307.8C3014.73 2314.4 3020.73 2319.35 3029.43 2322.65C3037.23 2318.15 3043.23 2311.25 3047.43 2301.95C3051.93 2292.35 3054.18 2282.45 3054.18 2272.25C3054.18 2263.85 3053.28 2255.3 3051.48 2246.6C3049.68 2237.9 3047.73 2229.35 3045.63 2220.95C3043.83 2212.55 3042.93 2205.05 3042.93 2198.45C3042.93 2196.35 3042.93 2194.55 3042.93 2193.05C3043.23 2191.25 3043.53 2189.6 3043.83 2188.1C3038.43 2196.2 3032.88 2205.65 3027.18 2216.45C3021.78 2227.25 3016.53 2237.6 3011.43 2247.5C3006.33 2257.4 3001.68 2265.5 2997.48 2271.8C3003.48 2272.7 3006.48 2277.8 3006.48 2287.1ZM2991.63 2309.6C2991.63 2314.4 2993.28 2318.6 2996.58 2322.2C2999.88 2325.8 3004.83 2327.6 3011.43 2327.6C3014.43 2327.6 3017.28 2327.3 3019.98 2326.7C3013.68 2322.8 3008.58 2317.85 3004.68 2311.85C3001.08 2305.85 2999.28 2298.95 2999.28 2291.15C2996.58 2294.15 2994.63 2297.3 2993.43 2300.6C2992.23 2303.6 2991.63 2306.6 2991.63 2309.6Z" fill="url(#paint1_linear_351_26)"/>
<defs>
<linearGradient id="paint0_linear_351_26" x1="2230.5" y1="935" x2="2230.5" y2="3617.72" gradientUnits="userSpaceOnUse">
<stop stop-color="#ECB044"/>
<stop offset="1" stop-color="#332B1E"/>
</linearGradient>
<linearGradient id="paint1_linear_351_26" x1="1364" y1="2231.5" x2="3098" y2="2231.5" gradientUnits="userSpaceOnUse">
<stop stop-color="#ECB044"/>
<stop offset="0.94" stop-color="#7F5F25"/>
</linearGradient>
</defs>
</svg>
