<svg xmlns="http://www.w3.org/2000/svg" width="1254" height="1254"><path fill="#FDFCFD" d="M0 0h1254v1254H0z" id="svg-layer-0" style="pointer-events: all;"/><path fill="#E3A829" d="m493 274 2.302.504C523.799 280.865 550.018 294.63 574 311q2.904 1.94 5.813 3.875l2.855 1.906L586 319l2.167 1.445c11.661 7.757 23.45 15.01 35.833 21.555l2.061 1.105c33.296 17.77 70.903 22.906 107.547 13.128 5.095-1.332 5.095-1.332 8.392-.233-38.105 18.928-76.556 25.176-117.742 11.848-22.01-7.512-42.458-18.896-62.697-30.195C537.36 324.149 513.59 313.249 486 309l-2.45-.406c-32.545-4.604-65.38 5.411-91.896 24.161-4.902 3.69-9.27 7.967-13.654 12.245l-1.95 1.762c-25.892 23.96-37.689 64.074-39.18 98.212-.698 22.798 1.414 45.2 5.794 67.569l.389 1.998c2.667 13.654 5.88 27.16 9.238 40.66a4134 4134 0 0 1 5.455 22.29c11.475 47.231 20.574 95.005 28.879 142.884 5.456 31.422 11.084 63.07 20.375 93.625l.802 2.667C413.386 834.864 421.627 852.413 434 867l2.29 2.813c7.602 8.915 16.684 15.123 26.585 21.25L466 893v1c-22.999-.08-42.81-12.517-59.25-27.75-7.38-7.782-12.533-17.239-16.937-26.937l-.899-1.953c-5.94-13.675-9.661-28.336-12.851-42.86l-.54-2.411c-3.747-16.785-7.046-33.66-10.378-50.53-12.306-62.283-27.624-123.159-46.69-183.744-5.72-18.233-10.773-36.609-14.705-55.315l-.759-3.582c-1.72-8.274-3.225-16.494-3.991-24.918l-.257-2.8C294.516 421.535 303.006 369.78 335 330l1.372-1.709c3.118-3.848 6.337-7.59 9.628-11.291l1.875-2.133C383.706 276.637 442.782 262.472 493 274" id="svg-layer-1" style="pointer-events: all;"/><path fill="#E3A829" d="M403 398q26.471-.035 52.943-.052 12.294-.007 24.588-.023 10.73-.015 21.46-.02 5.67 0 11.337-.01c42.727-.08 42.727-.08 57.797 2.355l2.479.394c37.053 6.236 71.169 25.51 93.362 56.21C676.29 470.364 683.322 485.29 688 501l.628 2.104c3.48 11.87 3.48 11.87 3.372 17.896q-10.226.037-20.453.055-3.481.008-6.964.02c-3.328.013-6.657.018-9.985.023l-3.166.015h-2.912l-2.577.007C644 521 644 521 643 520a79 79 0 0 1-.762-4.129C640.284 504.33 637.773 493.703 633 483l-.907-2.042c-4.311-9.526-9.379-17.885-16.093-25.958l-2.184-2.645c-20.643-23.955-51.703-35.53-82.628-38.163-5.73-.345-11.457-.378-17.195-.377a812 812 0 0 1-6.364-.04c-16.777-.07-16.777-.07-23.567 3.975-4.913 5.36-4.349 12.013-4.323 18.857l-.011 3.239c-.01 3.581-.007 7.162-.003 10.743q-.007 3.851-.015 7.703-.018 9.375-.012 18.752.002 7.623-.005 15.247l-.001 2.193-.004 4.41q-.014 20.68-.003 41.36c.006 12.603-.006 25.206-.025 37.81q-.03 19.423-.024 38.847.005 10.9-.014 21.8-.019 10.251.002 20.504.004 3.76-.009 7.52c-.01 3.426-.002 6.851.01 10.277l-.022 2.997c.058 7.358 1.073 13.847 5.522 19.866 7.037 5.201 15.119 5.692 23.625 5.938 1.091.035 2.182.07 3.306.108 31.704.748 61.448-6.873 85.038-29.01C605.368 668.618 612.08 659.095 618 649c4.013 4.955 6.537 10.775 9.318 16.472a636 636 0 0 0 3.028 6.063q.948 1.935 1.892 3.871l1.752 3.541c1.01 3.053 1.01 3.053.314 5.324-15.731 20.855-45.097 31.169-69.863 34.83-11.57 1.576-23.102 2.046-34.768 2.013h-4.144q-5.558-.001-11.117-.013c-3.89-.006-7.778-.006-11.667-.008q-11.017-.005-22.035-.021-12.555-.016-25.11-.022-25.8-.016-51.6-.05v-12l2.71-.262c17.272-2.007 17.272-2.007 22.72-8.422 6.83-11.99 4.854-28.417 4.829-41.671l.01-7.09a7940 7940 0 0 0 0-19.178q-.004-6-.001-11.998v-2.019l.003-4.06q.006-18.995-.012-37.991-.012-16.26.002-32.518a28337 28337 0 0 0 .007-41.902l-.001-2.01q-.002-6.975.006-13.948a6818 6818 0 0 0-.01-18.818q-.004-3.44.002-6.88c.06-34.415.06-34.415-7.265-42.233-6.458-6.36-15.448-6.305-24-7z" id="svg-layer-2" style="pointer-events: all;"/><path fill="#E3A829" d="M557 538h158v12l-2.937.078c-13.322.503-28.435 1.705-38.54 11.328-5.383 5.92-7.43 12.776-7.523 20.594.849 8.458 3.67 15.867 7 23.625q.788 1.867 1.575 3.736c7.243 17.127 14.786 34.128 22.314 51.13q1.597 3.606 3.191 7.212c6.074 13.731 12.175 27.45 18.357 41.133L723 718.937l1.14 2.524c6.208 13.76 12.27 27.58 18.208 41.46 3.021 7.054 6.083 14.08 9.316 21.04q.857 1.86 1.713 3.721a498 498 0 0 0 3.171 6.724c5.219 11.316 3.429 19.963.688 31.795-3.723 16.164-6.258 32.326-8.236 48.799l-.355 2.897c-.575 4.698-1.128 9.398-1.645 14.103h-2c-10.6-23.405-21.108-46.849-31.437-70.375-4.409-10.04-8.88-20.05-13.375-30.052a3891 3891 0 0 1-9.114-20.432c-6.129-13.848-12.274-27.678-18.699-41.391-4.782-10.21-9.363-20.495-13.851-30.837-7.19-16.551-14.658-32.975-22.12-49.405a5466 5466 0 0 1-8.002-17.719l-1.13-2.513-1.114-2.477a7387 7387 0 0 0-8.861-19.638l-1.855-4.104C596.816 561.755 596.816 561.755 577 554c-6.26-1.919-12.523-3.136-19-4l-1-1z" id="svg-layer-3" style="pointer-events: all;"/><path fill="#1485EE" d="m997 453 1 2-3.227 1.836C967.451 472.542 942.413 493.046 923 518l-1.44 1.814C901.684 544.862 886.33 572.504 872 601l-.9 1.79C853.39 638.088 838.173 674.56 823 711l-1.038 2.49C807.822 747.433 793.89 781.458 780 815.5a31419 31419 0 0 1-19.854 48.58c-3.96 9.68-7.992 19.322-12.146 28.92h-1c2.447-91.41 40.035-184.356 77.68-271.5l.846-1.948c2.5-5.71 5.21-11.306 8.064-16.849 1.862-3.627 3.703-7.265 5.539-10.906C849.704 570.969 861.363 550.977 875 532l2.223-3.117C904.725 491.248 942.074 461.585 989 454a181 181 0 0 1 8-1M612.18 786.852c21.621 13.752 32.595 38.373 41.453 61.53a1180 1180 0 0 0 2.897 7.48 2890 2890 0 0 1 7.93 20.591c10.383 27.01 10.383 27.01 22.403 33.563 7.125 3.14 14.255 2.83 21.574.484 6.257-2.474 11.296-6.39 16.563-10.5l3-2c-4.244 12.347-12.709 20.88-24 27-8.974 4.334-19.2 4.324-28.562 1.098-20.4-9.186-29.764-31.55-37.887-50.966-1.797-4.287-3.64-8.556-5.485-12.823l-1.076-2.495C623.725 843.078 616.389 826.52 600 817c-5.85-1.95-11.848-1.9-17.437.813-2.056 1.12-3.52 2.144-5.16 3.824C576 823 576 823 574 823l-.8 1.752c-1.255 2.352-2.694 4.174-4.403 6.217-4.304 5.456-7.409 11.35-10.547 17.531l-1.824 3.549c-4.59 8.999-8.769 18.158-12.698 27.465-8.062 18.996-18.903 37.672-38.833 45.744-15.866 5.421-32.198 2.648-47.247-4.301C436.913 910.216 420.09 892.762 408 873l-1.145-1.824c-4.37-6.975-4.37-6.975-5.855-10.176l1-2 1.617 1.906c15.062 17.303 36.219 30.702 59.57 32.407 4.204.38 7.703 1.715 11.625 3.25 8.547 3.155 15.989 4.211 24.5.437 7.574-3.807 12.478-11.544 16.25-18.875l1.243-2.375c4.214-8.33 7.642-16.976 11.133-25.625C535.084 832.422 542.366 814.591 555 800l2.137-2.473c14.107-15.171 36.43-21.514 55.043-10.675M857.258 319.672c26.035 22.664 37.457 55.52 40.43 89.078 2.406 40.403-7.161 79.416-25.688 115.25-1.24-3.721-.64-6.612-.04-10.387l.334-2.226c.47-3.132.955-6.261 1.44-9.391 6.948-45.232 5.733-101.637-21.672-140.496-13.41-18.228-30.643-28.066-52.75-32.187-18.713-1.766-35.418 3.236-53.089 8.706-4.53 1.379-9.083 2.645-13.66 3.856l-2.125.577c-10.523 2.76-20.755 3.875-31.625 3.798l-3.366.023c-6.465-.015-12.197-.61-18.447-2.273 2.885-1.923 5.166-2.631 8.49-3.442 18.097-4.467 34.426-12.924 50.835-21.54 39.428-20.674 83.77-30.469 120.933.654" id="svg-layer-4" style="pointer-events: all;"/><path fill="#E3A829" d="M969 311h1l.503 2.687q.942 5.005 1.896 10.008.409 2.152.811 4.306c4.63 24.724 4.63 24.724 10.79 28.999 8.175 3.279 16.62 5.13 25.25 6.75l3.45.668q4.148.802 8.3 1.582c-3.15 2.1-4.951 2.517-8.629 3.148l-3.389.61q-3.502.61-7.007 1.21c-17.32 3.13-17.32 3.13-21.669 7.883-1.368 2.252-1.99 4.048-2.552 6.614l-.593 2.646-.598 2.827-.64 2.912c-2.17 10.012-4.079 20.074-5.923 30.15-2.698-2.698-2.81-5.472-3.402-9.098l-.374-2.146q-.59-3.408-1.162-6.818c-3.01-17.862-3.01-17.862-6.062-25.938l-1-3c-6.286-3.284-14.114-4.195-21-5.562l-6.187-1.254-2.965-.599c-3.96-.814-7.904-1.694-11.848-2.585v-1l3.026-.595a2867 2867 0 0 0 11.17-2.23q2.412-.484 4.825-.958c2.32-.456 4.638-.923 6.956-1.393l2.16-.417c4.365-.898 7.935-2.332 11.863-4.407h2c5.986-14.002 7.988-30.156 11-45" id="svg-layer-5" style="pointer-events: all;"/></svg>